<?xml version="1.0" encoding="utf-8"?>
<!-- Generator: Adobe Illustrator 21.1.0, SVG Export Plug-In . SVG Version: 6.00 Build 0)  -->
<svg version="1.1" id="Layer_1" xmlns="http://www.w3.org/2000/svg" xmlns:xlink="http://www.w3.org/1999/xlink" x="0px" y="0px"
	 viewBox="0 0 600 600" style="enable-background:new 0 0 600 600;" xml:space="preserve">
<style type="text/css">
	.st0{fill:none;}
	.st1{fill:#4C26F2;}
	.st2{font-family:'BalloonPops';}
	.st3{font-size:385px;}
	.st4{fill:#F6DD62;}
</style>
<rect x="67.3" y="167.9" class="st0" width="416.3" height="443.6"/>
<text transform="matrix(1 0 0 1 67.25 482.5527)" class="st1 st2 st3">W</text>
<path d="M327,314.7"/>
<path class="st1" d="M411.2,175.7c6.7,1.3,13.4,2.6,20.2,3.9c6.7,1.3,13.4,2.6,20.2,3.9c-2.2,11.7-4.5,23.4-6.7,35.1l-10.1,52.7
	l-6.7,35.1c-1.1,5.9-2.2,11.7-3.4,17.6c4.5,13,8.9,26,13.4,39l5.8,26.4c1.4,14.1,2,30.2,0.8,47.7c-1.8,27.7-7.3,51.4-13.5,70.2
	c-7.7,3.1-32,12.1-63.8,6c-8.5-1.6-34.9-7.7-57.1-29.2c1-18.8,4.2-43.1,13.5-70.2c9.6-28.1,22.5-50.3,33.6-66.4
	c9-10.4,17.9-20.8,26.9-31.3c1.1-5.9,2.2-11.7,3.4-17.6l6.7-35.1l10.1-52.7L411.2,175.7z"/>
<path d="M361,172.7"/>
<path class="st4" d="M399.3,501.2L329,486.3c-5.6-1.2-9.1-6.6-7.9-12.2l19.6-92.9c1.2-5.6,6.6-9.1,12.2-7.9l70.3,14.8
	c5.6,1.2,9.1,6.6,7.9,12.2l-19.6,92.9C410.3,498.8,404.9,502.3,399.3,501.2z"/>
<g>
	<g>
		<path class="st4" d="M408.1,209.2c11,2.1,21.9,4.5,32.8,7.3c5.6,1.4,8-7.3,2.4-8.7c-10.9-2.7-21.8-5.2-32.8-7.3
			C404.9,199.4,402.4,208.1,408.1,209.2L408.1,209.2z"/>
	</g>
</g>
<g>
	<g>
		<path class="st4" d="M411.2,177.7c5.2,5.5,11.6,8.3,19.1,9.1c6.6,0.8,14.4,1.4,20.1-2.5c4.8-3.2,0.3-11-4.5-7.8
			c-3.8,2.6-9.4,1.8-13.8,1.4c-5.7-0.5-10.5-2.5-14.5-6.7C413.6,167.1,407.2,173.5,411.2,177.7L411.2,177.7z"/>
	</g>
</g>
<g>
	<g>
		<path class="st4" d="M416.4,179.6c5.4-2.5,10-2.1,15.7-0.7c4.1,1,10.5,2,13,5.9c3.2,4.8,11,0.3,7.8-4.5c-4.1-6.2-11.5-8.3-18.4-10
			c-8.2-2-14.8-1.9-22.6,1.6C406.5,174.2,411.1,182,416.4,179.6L416.4,179.6z"/>
	</g>
</g>
<g>
	<g>
		<path class="st4" d="M414.4,150.7c-2-7.6-4.1-15.2-7.5-22.3c-3.2-6.6-7.9-11.9-13.1-17.1c-5.1-5.2-9.6-11.2-15.8-15.2
			c-6.4-4.1-14.4-5.7-21.9-4.2c-15.1,3.1-23.9,19.5-18.2,33.8c5.6,14.1,23.6,14.8,32.2,3.4c2.5-3.2,0.5-8.4-2.7-10.3
			c-3.8-2.3-7.8-0.5-10.3,2.7c-0.7,1-3.3,1-4.2,0.4c-2.9-1.8-2-8.1-0.7-10.5c4-7.7,14.4-5.7,19.9-1.1c3.4,2.8,6.2,6.5,9.3,9.7
			c3,3.1,6.2,5.9,8.7,9.4c5.3,7.4,7.5,16.5,9.7,25.2C402.3,164,416.8,160,414.4,150.7L414.4,150.7z"/>
	</g>
</g>
<g>
	<g>
		<path class="st4" d="M442.1,139.4c1.3-12.5,5.1-24.8,11.1-35.9c5.2-9.5,13-22.5,23.7-26.3c9.1-3.2,5.2-17.7-4-14.5
			c-14.5,5.1-24.6,18.8-31.9,31.7c-7.8,13.9-12.4,29.1-14,44.9c-0.4,4,3.7,7.5,7.5,7.5C439,146.9,441.7,143.4,442.1,139.4
			L442.1,139.4z"/>
	</g>
</g>
<g>
	<g>
		<path class="st4" d="M455.1,164.2c15.8-4.2,32.9-2.2,47.3,5.8c15.7,8.8,26.3,24.4,33.3,40.6c7.2,16.6,10.4,35.5,5.4,53.1
			c-4.5,15.7-15.1,29.2-30.5,35.3c-14.4,5.7-39.8,12.1-52.1-0.9c-6.6-7-17.2,3.6-10.6,10.6c14.5,15.3,38,12.6,56.5,7.9
			c21-5.3,38.1-18,47.1-37.9c9-20,8.8-42.5,2.1-63.1c-6.7-20.7-18.7-40.9-36.4-54c-18.7-13.8-43.7-17.9-66-11.9
			C441.8,152.2,445.7,166.7,455.1,164.2L455.1,164.2z"/>
	</g>
</g>
</svg>
